# AST/ASF file generated using VICON BodyLanguage
# -----------------------------------------------
:version 1.10
:name VICON
:units
  mass 1.0
  length 0.45
  angle deg
:documentation
   .ast/.asf automatically generated from VICON data using
   VICON BodyBuilder and BodyLanguage model FoxedUp or BRILLIANT.MOD
:root
   order TX TY TZ RX RY RZ
   axis XYZ
   position 0 0 0  
   orientation 0 0 0 
:bonedata
  begin
     id 1 
     name lhipjoint
     direction 0.624716 -0.669793 0.401383 
     length 2.38238 
     axis 0 0 0  XYZ
  end
  begin
     id 2 
     name lfemur
     direction 0.34202 -0.939693 0  
     length 6.4574  
     axis 0 0 20  XYZ
    dof rx ry rz
    limits (-160.0 20.0)
           (-70.0 70.0)
           (-60.0 70.0)
  end
  begin
     id 3 
     name ltibia
     direction 0.34202 -0.939693 0   
     length 7.68739   
     axis 0 0 20   XYZ
    dof rx
    limits (-10.0 170.0)
  end
  begin
     id 4 
     name lfoot
     direction 0.0681309 -0.187188 0.979959   
     length 2.46615   
     axis -90 7.62852e-016 20   XYZ
    dof rx rz
    limits (-45.0 90.0)
           (-70.0 20.0)
  end
  begin
     id 5 
     name ltoes
     direction 1.53566e-011 -4.21819e-011 1   
     length 1.2376   
     axis -90 7.62852e-016 20   XYZ
    dof rx
    limits (-90.0 20.0)
  end
  begin
     id 6 
     name rhipjoint
     direction -0.644473 -0.655875 0.393043   
     length 2.43293  
     axis 0 0 0  XYZ 
  end
  begin
     id 7 
     name rfemur
     direction -0.34202 -0.939693 0   
     length 6.7025   
     axis 0 0 -20   XYZ
    dof rx ry rz
    limits (-160.0 20.0)
           (-70.0 70.0)
           (-70.0 60.0)
  end
  begin
     id 8 
     name rtibia
     direction -0.34202 -0.939693 0   
     length 7.80547   
     axis 0 0 -20   XYZ
    dof rx
    limits (-10.0 170.0)
 end
 begin
     id 9 
     name rfoot
     direction -0.0756734 -0.207911 0.975216   
     length 2.40315  
     axis -90 -7.62852e-016 -20   XYZ
    dof rx rz
    limits (-45.0 90.0)
           (-20.0 70.0)
  end
  begin
     id 10 
     name rtoes
     direction -1.5353e-011 -4.21879e-011 1   
     length 1.20477   
     axis -90 -7.62852e-016 -20   XYZ
    dof rx
    limits (-90.0 20.0)
  end
  begin
     id 11 
     name lowerback
     direction 0.0160353 0.987463 -0.157037   
     length 2.18572   
     axis 0 0 0   XYZ
    dof rx ry rz
    limits (-20.0 45.0)
           (-30.0 30.0)
           (-30.0 30.0)
  end
  begin
     id 12 
     name upperback
     direction -0.00499661 0.999756 0.0215076   
     length 2.18016   
     axis 0 0 0   XYZ
    dof rx ry rz
    limits (-20.0 45.0)
           (-30.0 30.0)
           (-30.0 30.0)
  end
  begin
     id 13 
     name thorax
     direction -0.00921346 0.995333 0.0960619   
     length 2.24923   
     axis 0 0 0   XYZ
    dof rx ry rz
    limits (-20.0 45.0)
           (-30.0 30.0)
           (-30.0 30.0)
  end
  begin
     id 14 
     name lowerneck
     direction 0.0274184 0.991181 0.12965   
     length 1.70911   
     axis 0 0 0   XYZ
    dof rx ry rz
    limits (-20.0 45.0)
           (-30.0 30.0)
           (-30.0 30.0)
  end
  begin
     id 15 
     name upperneck
     direction 0.0015627 0.999959 -0.00893559   
     length 1.69312   
     axis 0 0 0   XYZ
    dof rx ry rz
    limits (-20.0 45.0)
           (-30.0 30.0)
           (-30.0 30.0)
  end
  begin
     id 16
     name head
     direction -0.00230242 0.999856 -0.0168327  
     length 1.80241  
     axis 0 0 0   XYZ
    dof rx ry rz
    limits (-20.0 45.0)
           (-30.0 30.0)
           (-30.0 30.0)
  end
  begin
     id 17 
     name lclavicle
     direction 0.955523 0.290741 -0.0494489  
     length 3.84275  
     axis 0 0 0   XYZ
    dof ry rz
    limits (-20.0 10.0)
           (0.0 20.0)
  end
  begin
     id 18 
     name lhumerus
     direction 1 -4.48967e-011 -3.18382e-028   
     length 5.17714   
     axis 180 -30 -90   XYZ
    dof rx ry rz
    limits (-60.0 90.0)
           (-90.0 90.0)
           (-90.0 90.0)
  end
  begin
     id 19
     name lradius
     direction 1 -4.48968e-011 -2.22911e-027   
     length 3.43679   
     axis 180 -30 -90   XYZ
    dof rx
    limits (-10.0 170.0)
  end
  begin
     id 20
     name lwrist
     direction 1 -4.48951e-011 -6.32245e-027   
     length 1.7184   
     axis 3.57107e-015 90 90   XYZ
    dof ry
    limits (-180.0 0.0)
 end
  begin
     id 21 
     name lhand
     direction 1 -4.48924e-011 -1.26431e-026   
     length 0.573117   
     axis 8.06912e-015 90 90   XYZ
    dof rx rz
    limits (-90.0 90.0)
           (-45.0 45.0)
  end
  begin
     id 22 
     name lfingers
     direction 1 -4.49001e-011 -2.52965e-026   
     length 0.462062   
     axis 1.61381e-014 90 90   XYZ
    dof rx
    limits (0.0 90.0)
  end
  begin
     id 23
     name lthumb
     direction 0.707107 -6.35008e-011 0.707107   
     length 0.663431   
     axis -90 45 -1.62303e-014   XYZ
    dof rx rz
    limits (-45.0 45.0)
           (-45.0 45.0)
  end
  begin
     id 24 
     name rclavicle
     direction -0.963917 0.256881 -0.0698287   
     length 3.73057  
     axis 0 0 0   XYZ 
    dof ry rz
    limits (-10.0 20.0)
           (-20.0 0.0)
  end
  begin
     id 25 
     name rhumerus
     direction -1 -4.48962e-011 -2.73982e-027  
     length 5.23908   
     axis 180 30 90   XYZ
    dof rx ry rz
    limits (-90.0 60.0)
           (-90.0 90.0)
           (-90.0 90.0)
  end
  begin
     id 26 
     name rradius
     direction -1 -4.48968e-011 -4.33218e-027   
     length 3.46485   
     axis 180 30 90   XYZ
    dof rx
    limits (-10.0 170.0)
  end
  begin
     id 27 
     name rwrist
     direction -1 -4.48989e-011 -6.32372e-027   
     length 1.73243   
     axis 3.57107e-015 -90 -90   XYZ
    dof ry
    limits (-180.0 0.0)
  end
  begin
     id 28
     name rhand
     direction -1 -4.48948e-011 -1.26448e-026   
     length 0.608752   
     axis 8.06912e-015 -90 -90   XYZ
    dof rx rz
    limits (-90.0 90.0)
           (-45.0 45.0)
  end
  begin
     id 29
     name rfingers
     direction -1 -4.48962e-011 -2.52913e-026   
     length 0.490792   
     axis 1.61381e-014 -90 -90   XYZ
    dof rx
    limits (0.0 90.0)
  end
  begin
     id 30
     name rthumb
     direction -0.707107 -6.34878e-011 0.707107   
     length 0.704682   
     axis -90 -45 1.62303e-014   XYZ
    dof rx rz
    limits (-45.0 45.0)
           (-45.0 45.0)
  end
:hierarchy
  begin
    root lhipjoint rhipjoint lowerback
    lhipjoint lfemur
    lfemur ltibia
    ltibia lfoot
    lfoot ltoes
    rhipjoint rfemur
    rfemur rtibia
    rtibia rfoot
    rfoot rtoes
    lowerback upperback
    upperback thorax
    thorax lowerneck lclavicle rclavicle
    lowerneck upperneck
    upperneck head
    lclavicle lhumerus
    lhumerus lradius
    lradius lwrist
    lwrist lhand lthumb
    lhand lfingers
    rclavicle rhumerus
    rhumerus rradius
    rradius rwrist
    rwrist rhand rthumb
    rhand rfingers
  end

#!OML:ASF G:\JayActor3\Patient Classification 1\Patient 1\Session 6\male.ASF
:FULLY-SPECIFIED
:DEGREES
336
root 44.156 16.1856 12.5728 194.832 -44.9675 -179.489
lowerback 4.93406 -3.43578 -0.189481
upperback 4.38468 -4.75126 -1.00473
thorax 1.68139 -2.44092 -0.765616
lowerneck -4.83809 -0.949973 0.471297
upperneck 10.9419 -1.47806 -0.255174
head 4.46899 -0.793743 -0.254919
rclavicle 8.11041e-014 -2.14687e-014
rhumerus -36.6289 -11.3619 -79.8234
rradius 36.3977
rwrist -3.35744
rhand -18.9778 -8.47068
rfingers 7.12502
rthumb 7.32654 -38.3238
lclavicle 8.11041e-014 -2.14687e-014
lhumerus -26.5617 -2.05334 87.2468
lradius 32.0596
lwrist 20.9634
lhand -19.9598 13.7951
lfingers 7.12502
lthumb 6.37863 43.679
rfemur -38.0912 -4.48847 34.5185
rtibia 41.2771
rfoot -0.632954 9.01191
rtoes 21.1634
lfemur 6.38996 7.52935 -18.3368
ltibia 18.7454
lfoot 17.8523 -1.45481
ltoes 12.7105
337
root 44.0546 16.1389 12.4674 195.197 -45.6706 -180.157
lowerback 5.25847 -3.3643 -0.180272
upperback 4.41871 -4.6622 -0.918411
thorax 1.54386 -2.39966 -0.665087
lowerneck -4.45568 -1.29113 0.243381
upperneck 10.3249 -1.91458 -0.0546254
head 4.1715 -1.0019 -0.16155
rclavicle 2.54444e-014 -3.73715e-014
rhumerus -37.4028 -11.4966 -79.4109
rradius 37.0457
rwrist -4.11492
rhand -19.2062 -8.61263
rfingers 7.12502
rthumb 7.10608 -38.4733
lclavicle 2.54444e-014 -3.73715e-014
lhumerus -26.8215 -1.51279 87.2226
lradius 32.4165
lwrist 20.116
lhand -20.3572 13.7723
lfingers 7.12502
lthumb 5.99494 43.6675
rfemur -37.3284 -4.0455 33.9029
rtibia 41.316
rfoot -2.44593 9.29639
rtoes 21.9298
lfemur 5.21274 7.33171 -17.9416
ltibia 21.5748
lfoot 19.7955 -1.95631
ltoes 15.0555
338
root 43.9585 16.0952 12.3639 195.398 -46.2728 -180.61
lowerback 5.66241 -3.22539 -0.0898661
upperback 4.46715 -4.48197 -0.789953
thorax 1.37502 -2.31222 -0.566523
lowerneck -4.0226 -1.64195 0.0559989
upperneck 9.63791 -2.36829 0.169078
head 3.84557 -1.21689 -0.0660263
rclavicle -4.73108e-014 -2.54444e-014
rhumerus -38.1581 -11.545 -79.0498
rradius 37.6607
rwrist -4.93259
rhand -19.5056 -8.78382
rfingers 7.12502
rthumb 6.8171 -38.6541
lclavicle -4.73108e-014 -2.54444e-014
lhumerus -27.1128 -0.843819 87.1457
lradius 32.8278
lwrist 19.2929
lhand -20.9796 13.6546
lfingers 7.12502
lthumb 5.39404 43.566
rfemur -36.5771 -3.56419 33.4965
rtibia 41.3218
rfoot -4.34768 9.23601
rtoes 22.324
lfemur 3.84427 7.31707 -17.3837
ltibia 24.7191
lfoot 21.8778 -2.70709
ltoes 16.495
339
root 43.8677 16.0538 12.2638 195.365 -46.7879 -180.745
lowerback 6.1353 -3.03246 0.154095
upperback 4.53111 -4.22374 -0.604485
thorax 1.17821 -2.18391 -0.496936
lowerneck -3.56606 -1.98287 -0.0769579
upperneck 8.9221 -2.81259 0.398222
head 3.51149 -1.42689 0.0242508
rclavicle 4.4329e-014 -4.77083e-015
rhumerus -38.8392 -11.4896 -78.7575
rradius 38.179
rwrist -5.75384
rhand -19.8554 -8.9709
rfingers 7.12502
rthumb 6.47943 -38.8518
lclavicle 4.4329e-014 -4.77083e-015
lhumerus -27.4506 -0.0737833 87.0069
lradius 33.2799
lwrist 18.6
lhand -21.8562 13.4407
lfingers 7.12502
lthumb 4.54767 43.3719
rfemur -35.8161 -3.12323 33.3911
rtibia 41.2566
rfoot -6.20266 8.97744
rtoes 22.5014
lfemur 2.2801 7.46886 -16.612
ltibia 28.1676
lfoot 23.8925 -3.64707
ltoes 17.1586
340
root 43.7816 16.0156 12.1675 195.079 -47.2417 -180.524
lowerback 6.65215 -2.80213 0.596699
upperback 4.61817 -3.90533 -0.36581
thorax 0.97355 -2.02325 -0.488364
lowerneck -3.11893 -2.29909 -0.152513
upperneck 8.21514 -3.22753 0.631091
head 3.18829 -1.62256 0.108373
rclavicle 8.66701e-014 -1.47101e-014
rhumerus -39.3951 -11.3216 -78.5568
rradius 38.5648
rwrist -6.52762
rhand -20.2093 -9.17549
rfingers 7.12502
rthumb 6.13775 -39.0666
lclavicle 8.66701e-014 -1.47101e-014
lhumerus -27.8228 0.710514 86.8024
lradius 33.7087
lwrist 18.1928
lhand -22.9049 13.13
lfingers 7.12502
lthumb 3.53496 43.0804
rfemur -35.0161 -2.76494 33.6042
rtibia 41.0763
rfoot -7.87812 8.65286
rtoes 22.6739
lfemur 0.512311 7.72981 -15.611
ltibia 31.8877
lfoot 25.5444 -4.86888
ltoes 16.3727
341
root 43.6992 15.9822 12.0741 194.575 -47.6588 -179.98
lowerback 7.18923 -2.55554 1.22518
upperback 4.72065 -3.55227 -0.0811857
thorax 0.769605 -1.84363 -0.542508
lowerneck -2.69191 -2.57945 -0.184874
upperneck 7.56016 -3.59772 0.865483
head 2.89178 -1.7973 0.187882
rclavicle 4.09496e-014 3.45885e-014
rhumerus -39.7914 -11.048 -78.4471
rradius 38.7784
rwrist -7.19005
rhand -20.5102 -9.38894
rfingers 7.12502
rthumb 5.84721 -39.2883
lclavicle 4.09496e-014 3.45885e-014
lhumerus -28.2333 1.48035 86.5182
lradius 34.0874
lwrist 18.0487
lhand -24.2299 12.8056
lfingers 7.12502
lthumb 2.2553 42.7734
rfemur -34.1628 -2.48828 34.0905
rtibia 40.747
rfoot -9.34724 8.326
rtoes 22.8404
lfemur -1.45713 8.02558 -14.4034
ltibia 35.8092
lfoot 26.5742 -6.36028
ltoes 14.2345
342
root 43.6205 15.9551 11.9816 193.966 -48.0676 -179.237
lowerback 7.71182 -2.31538 1.9554
upperback 4.82876 -3.19699 0.230866
thorax 0.581467 -1.66287 -0.631536
lowerneck -2.27401 -2.81556 -0.198269
upperneck 6.97577 -3.91099 1.10189
head 2.62514 -1.9458 0.267036
rclavicle -5.96354e-016 1.07344e-014
rhumerus -40.0052 -10.6849 -78.4139
rradius 38.8041
rwrist -7.67459
rhand -20.6673 -9.56461
rfingers 7.12502
rthumb 5.69554 -39.4681
lclavicle -5.96354e-016 1.07344e-014
lhumerus -28.6694 2.21286 86.1451
lradius 34.3585
lwrist 18.1202
lhand -25.6014 12.5593
lfingers 7.12502
lthumb 0.930704 42.537
rfemur -33.2823 -2.27083 34.7345
rtibia 40.2656
rfoot -10.6316 7.97059
rtoes 22.8797
lfemur -3.61943 8.29691 -13.0827
ltibia 39.8349
lfoot 26.7848 -7.99885
ltoes 11.1301
343
root 43.5447 15.9357 11.8879 193.402 -48.4692 -178.483
lowerback 8.18859 -2.08988 2.66502
upperback 4.93594 -2.85753 0.535486
thorax 0.424199 -1.49152 -0.722284
lowerneck -1.84354 -3.01192 -0.208669
upperneck 6.46882 -4.17313 1.34317
head 2.38584 -2.07114 0.349057
rclavicle 1.01579e-013 -1.50082e-014
rhumerus -40.0317 -10.2718 -78.4377
rradius 38.6453
rwrist -7.93071
rhand -20.6127 -9.66591
rfingers 7.12502
rthumb 5.74826 -39.5679
lclavicle 1.01579e-013 -1.50082e-014
lhumerus -29.1305 2.88226 85.6781
lradius 34.4941
lwrist 18.3259
lhand -26.8908 12.5093
lfingers 7.12502
lthumb -0.314614 42.4888
rfemur -32.4121 -2.08454 35.3843
rtibia 39.6604
rfoot -11.6939 7.6386
rtoes 22.8854
lfemur -5.9491 8.4831 -11.7982
ltibia 43.8581
lfoot 26.1163 -9.57914
ltoes 7.60766
344
root 43.4714 15.9233 11.7922 193.012 -48.8535 -177.889
lowerback 8.60512 -1.88156 3.24211
upperback 5.04199 -2.54614 0.801603
thorax 0.306931 -1.33661 -0.782471
lowerneck -1.3962 -3.16958 -0.228246
upperneck 6.04563 -4.38497 1.58253
head 2.17433 -2.17386 0.433445
rclavicle -3.36195e-014 -7.31528e-014
rhumerus -39.8798 -9.83394 -78.5046
rradius 38.3375
rwrist -7.89775
rhand -20.3257 -9.68438
rfingers 7.12502
rthumb 6.02534 -39.5787
lclavicle -3.36195e-014 -7.31528e-014
lhumerus -29.6171 3.50933 85.1053
lradius 34.5018
lwrist 18.5287
lhand -27.9041 12.7472
lfingers 7.12502
lthumb -1.29327 42.7231
rfemur -31.6019 -1.877 35.9028
rtibia 39.0067
rfoot -12.5515 7.30377
rtoes 22.8265
lfemur -8.40499 8.55434 -10.6984
ltibia 47.7696
lfoot 24.6342 -10.962
ltoes 4.10867
345
root 43.4004 15.9205 11.6938 192.893 -49.2007 -177.588
lowerback 8.97457 -1.68538 3.60443
upperback 5.15074 -2.26373 1.00243
thorax 0.225357 -1.199 -0.791933
lowerneck -0.945279 -3.29549 -0.254767
upperneck 5.70559 -4.55544 1.8099
head 1.99157 -2.25796 0.515925
rclavicle 1.89094e-014 -7.8023e-015
rhumerus -39.5631 -9.40965 -78.5988
rradius 37.9297
rwrist -7.55928
rhand -19.8128 -9.59407
rfingers 7.12502
rthumb 6.52057 -39.4737
lclavicle 1.89094e-014 -7.8023e-015
lhumerus -30.1191 4.09032 84.428
lradius 34.3691
lwrist 18.6543
lhand -28.5268 13.2471
lfingers 7.12502
lthumb -1.89468 43.2185
rfemur -30.8821 -1.60238 36.1831
rtibia 38.3763
rfoot -13.225 6.94006
rtoes 22.6515
lfemur -10.9852 8.43074 -9.89076
ltibia 51.4901
lfoot 22.5341 -11.9649
ltoes 1.16708
346
root 43.3311 15.9244 11.5946 193.039 -49.494 -177.6
lowerback 9.31637 -1.49617 3.76132
upperback 5.27482 -2.00566 1.1316
thorax 0.178762 -1.07589 -0.761547
lowerneck -0.497863 -3.39624 -0.298162
upperneck 5.42769 -4.69257 2.02484
head 1.83148 -2.32711 0.597727
rclavicle -1.12214e-013 4.96962e-015
rhumerus -39.105 -9.01432 -78.7122
rradius 37.4963
rwrist -6.93108
rhand -19.1422 -9.41221
rfingers 7.12502
rthumb 7.16786 -39.2708
lclavicle -1.12214e-013 4.96962e-015
lhumerus -30.6404 4.62051 83.6633
lradius 34.1167
lwrist 18.7047
lhand -28.7774 13.8857
lfingers 7.12502
lthumb -2.13677 43.8547
rfemur -30.2828 -1.25883 36.2119
rtibia 37.8551
rfoot -13.7289 6.56741
rtoes 22.375
lfemur -13.6388 8.14186 -9.41079
ltibia 54.9496
lfoot 19.969 -12.795
ltoes -1.64023
347
root 43.2631 15.9345 11.496 193.382 -49.728 -177.825
lowerback 9.64961 -1.3105 3.78858
upperback 5.416 -1.76322 1.20441
thorax 0.155739 -0.961969 -0.717582
lowerneck -0.0715628 -3.47173 -0.362928
upperneck 5.19323 -4.79539 2.22105
head 1.69042 -2.38045 0.677369
rclavicle -2.31584e-014 4.81059e-014
rhumerus -38.528 -8.66563 -78.8376
rradius 37.0978
rwrist -6.0457
rhand -18.4079 -9.17372
rfingers 7.12502
rthumb 7.87663 -39.007
lclavicle -2.31584e-014 4.81059e-014
lhumerus -31.1854 5.1171 82.8203
lradius 33.7736
lwrist 18.6729
lhand -28.7549 14.4833
lfingers 7.12502
lthumb -2.11498 44.4525
rfemur -29.8109 -0.855545 36.0611
rtibia 37.4581
rfoot -14.0734 6.1923
rtoes 21.9674
lfemur -16.3696 7.68556 -9.17965
ltibia 58.1202
lfoot 17.1207 -13.4216
ltoes -4.23507
348
root 43.197 15.9463 11.4007 193.855 -49.9031 -178.184
lowerback 9.99009 -1.12285 3.7547
upperback 5.58194 -1.52549 1.22944
thorax 0.154259 -0.851057 -0.69
lowerneck 0.309262 -3.53153 -0.434458
upperneck 4.97852 -4.87608 2.39901
head 1.56426 -2.42315 0.752013
rclavicle -1.98785e-016 1.05356e-014
rhumerus -37.8619 -8.3894 -78.9673
rradius 36.7938
rwrist -4.95213
rhand -17.6813 -8.86633
rfingers 7.12502
rthumb 8.57787 -38.6721
lclavicle -1.98785e-016 1.05356e-014
lhumerus -31.7513 5.54665 81.9228
lradius 33.3283
lwrist 18.6159
lhand -28.3351 15.0262
lfingers 7.12502
lthumb -1.70953 44.9991
rfemur -29.4709 -0.442177 35.7981
rtibia 37.1911
rfoot -14.2552 5.85893
rtoes 21.4395
lfemur -19.1357 7.14072 -9.15055
ltibia 60.9749
lfoot 13.904 -14.003
ltoes -7.86467
349
root 43.1319 15.9642 11.3073 194.39 -50.0223 -178.576
lowerback 10.3496 -0.934404 3.71454
upperback 5.76342 -1.28922 1.23003
thorax 0.158198 -0.741208 -0.685265
lowerneck 0.661316 -3.57917 -0.522614
upperneck 4.75029 -4.93839 2.5638
head 1.43961 -2.45716 0.825346
rclavicle 6.4605e-014 -6.36111e-015
rhumerus -37.1426 -8.14548 -79.1038
rradius 36.6315
rwrist -3.76932
rhand -17.0692 -8.54033
rfingers 7.12502
rthumb 9.16859 -38.321
lclavicle 6.4605e-014 -6.36111e-015
lhumerus -32.369 5.91194 80.9947
lradius 32.8257
lwrist 18.5597
lhand -27.9698 15.2889
lfingers 7.12502
lthumb -1.35677 45.2643
rfemur -29.2192 -0.0596876 35.4988
rtibia 36.9956
rfoot -14.2787 5.60252
rtoes 20.7843
lfemur -21.9996 6.46625 -9.21116
ltibia 63.523
lfoot 10.5888 -14.1485
ltoes -11.5928
350
root 43.0686 15.9865 11.2161 194.927 -50.1041 -178.909
lowerback 10.7331 -0.748932 3.71285
upperback 5.95216 -1.05497 1.22889
thorax 0.156639 -0.632358 -0.704836
lowerneck 0.989014 -3.61882 -0.622714
upperneck 4.48484 -4.9872 2.71827
head 1.30813 -2.48473 0.897652
rclavicle 3.95581e-014 -6.08281e-014
rhumerus -36.4062 -7.89876 -79.2483
rradius 36.648
rwrist -2.60821
rhand -16.6388 -8.21865
rfingers 7.12502
rthumb 9.58383 -37.9807
lclavicle 3.95581e-014 -6.08281e-014
lhumerus -33.0501 6.22575 80.0492
lradius 32.2868
lwrist 18.4911
lhand -27.6184 15.3656
lfingers 7.12502
lthumb -1.01739 45.3429
rfemur -29.0465 0.277198 35.2361
rtibia 36.8367
rfoot -14.1515 5.43544
rtoes 20.076
lfemur -24.9646 5.70544 -9.27387
ltibia 65.7634
lfoot 7.34197 -13.7001
ltoes -14.9916
